<svg width="128" height="128" viewBox="0 0 128 128" fill="none" xmlns="http://www.w3.org/2000/svg">
<rect width="128" height="128" fill="black"/>
<path d="M96 60C98.14 60 99.8879 61.6806 99.9951 63.7939L100 64V96C100 98.2091 98.2091 100 96 100H64L63.7939 99.9951C61.6806 99.8879 60 98.14 60 96V88H64V96H96V64H88V60H96Z" fill="white"/>
<path d="M64 48V52H54.8281L76 73.1719V64H80V80H64V76H73.1719L52 54.8281V64H48V48H64Z" fill="white"/>
<path d="M64 28C66.14 28 67.8879 29.6806 67.9951 31.7939L68 32V40H64V32H32V64H40V68H32L31.7939 67.9951C29.6806 67.8879 28 66.14 28 64V32L28.0049 31.7939C28.1087 29.7488 29.7488 28.1087 31.7939 28.0049L32 28H64Z" fill="white"/>
</svg>
